HIERARCHY
ROOT Pelvis
{
	OFFSET -0.217368 -24.078917 2.858379
	CHANNELS 6 Xposition Yposition Zposition Zrotation Yrotation Xrotation 
	JOINT Left_hip
	{
		OFFSET 5.858135 -8.228005 -1.766408
		CHANNELS 3 Zrotation Yrotation Xrotation
		JOINT Left_knee
		{
			OFFSET 4.345143 -38.646942 0.803700
			CHANNELS 3 Zrotation Yrotation Xrotation
			JOINT Left_ankle
			{
				OFFSET -1.479033 -42.687447 -3.742800
				CHANNELS 3 Zrotation Yrotation Xrotation
				JOINT Left_foot
				{
					OFFSET 4.105436 -6.028605 12.204244
					CHANNELS 3 Zrotation Yrotation Xrotation
					End Site
					{
						OFFSET 0.000000 0.000000 0.000000
					}
				}
			}
		}
	}
	JOINT Right_hip
	{
		OFFSET -6.030973 -9.051328 -1.354253
		CHANNELS 3 Zrotation Yrotation Xrotation
		JOINT Right_knee
		{
			OFFSET -4.325663 -38.368790 -0.484304
			CHANNELS 3 Zrotation Yrotation Xrotation
			JOINT Right_ankle
			{
				OFFSET 1.905555 -42.004566 -3.456167
				CHANNELS 3 Zrotation Yrotation Xrotation
				JOINT Right_foot
				{
					OFFSET -3.483987 -6.210554 13.032330
					CHANNELS 3 Zrotation Yrotation Xrotation
					End Site
					{
						OFFSET 0.000000 0.000000 0.000000
					}
				}
			}
		}
	}
	JOINT Spine1
	{
		OFFSET 0.443945 12.440353 -3.838522
		CHANNELS 3 Zrotation Yrotation Xrotation
		JOINT Spine2
		{
			OFFSET 0.448844 13.795640 2.682033
			CHANNELS 3 Zrotation Yrotation Xrotation
			JOINT Spine3
			{
				OFFSET -0.226460 5.603239 0.285504
				CHANNELS 3 Zrotation Yrotation Xrotation
				JOINT Neck
				{
					OFFSET -1.339018 21.163553 -3.346758
					CHANNELS 3 Zrotation Yrotation Xrotation
					JOINT Head
					{
						OFFSET 1.011321 8.893734 5.040987
						CHANNELS 3 Zrotation Yrotation Xrotation
						End Site
						{
							OFFSET 0.000000 0.000000 0.000000
						}
					}
				}
				JOINT Left_collar
				{
					OFFSET 7.170247 11.399971 -1.889817
					CHANNELS 3 Zrotation Yrotation Xrotation
					JOINT Left_shoulder
					{
						OFFSET 12.292140 4.520507 -1.904600
						CHANNELS 3 Zrotation Yrotation Xrotation
						JOINT Left_elbow
						{
							OFFSET 25.533188 -1.564902 -2.294648
							CHANNELS 3 Zrotation Yrotation Xrotation
							JOINT Left_wrist
							{
								OFFSET 26.570929 1.269810 -0.737473
								CHANNELS 3 Zrotation Yrotation Xrotation
								JOINT Left_palm
								{
									OFFSET 8.669054 -1.063602 -1.559429
									CHANNELS 3 Zrotation Yrotation Xrotation
									End Site
									{
										OFFSET 0.000000 0.000000 0.000000
									}
								}
							}
						}
					}
				}
				JOINT Right_collar
				{
					OFFSET -8.295364 11.247234 -2.370738
					CHANNELS 3 Zrotation Yrotation Xrotation
					JOINT Right_shoulder
					{
						OFFSET -11.322830 4.685326 -0.847207
						CHANNELS 3 Zrotation Yrotation Xrotation
						JOINT Right_elbow
						{
							OFFSET -26.012751 -1.436928 -3.126872
							CHANNELS 3 Zrotation Yrotation Xrotation
							JOINT Right_wrist
							{
								OFFSET -26.910841 0.679372 -0.602677
								CHANNELS 3 Zrotation Yrotation Xrotation
								JOINT Right_palm
								{
									OFFSET -8.875370 -0.865157 -1.010708
									CHANNELS 3 Zrotation Yrotation Xrotation
									End Site
									{
										OFFSET 0.000000 0.000000 0.000000
									}
								}
							}
						}
					}
				}
			}
		}
	}
}
MOTION
Frames: 16
Frame Time: 0.016667
1.583634 24.304842 -88.204987 -1.039581 6.003994 10.285453 48.079004 23.718109 -64.901568 -26.563077 42.121198 112.041626 9.248231 17.001419 -27.434044 0.000000 0.000000 0.000000 -49.243350 -22.278590 -62.978126 46.650639 -54.510219 93.958456 -11.242679 -28.841231 -9.066147 0.000000 0.000000 0.000000 -3.081157 -1.166009 73.761933 4.233559 0.346346 -36.024662 -0.087788 7.276623 27.967134 -1.991580 2.887486 -30.179303 0.000000 0.000000 0.000000 1.246125 -30.787785 10.570155 3.898283 -28.650691 -2.085315 25.542278 -39.408334 -7.634180 0.000000 0.000000 0.000000 0.000000 0.000000 0.000000 -0.050324 33.069776 11.832444 -8.176733 30.281310 -3.235977 -19.537649 18.834541 -2.254872 0.000000 0.000000 0.000000 0.000000 0.000000 0.000000 
1.039519 23.234751 -89.264313 -2.049819 6.591296 8.806624 47.239263 23.962226 -66.695992 -24.762763 40.584219 114.073659 9.539094 18.275319 -27.466198 0.000000 0.000000 0.000000 -48.890122 -22.128896 -63.140810 47.610175 -55.128304 93.330315 -12.202248 -30.896030 -7.150590 0.000000 0.000000 0.000000 -3.097850 -1.167002 74.396377 3.748661 0.376961 -35.418082 1.536144 7.829797 27.638059 -3.463834 3.562227 -32.317441 0.000000 0.000000 0.000000 0.605508 -30.687457 10.668824 3.182215 -26.659443 -1.803309 27.147054 -38.554088 -8.025887 0.000000 0.000000 0.000000 0.000000 0.000000 0.000000 -0.376853 33.667830 11.983118 -10.273911 29.960892 -3.591895 -16.236698 16.573619 -1.510493 0.000000 0.000000 0.000000 0.000000 0.000000 0.000000 
0.185237 22.416895 -90.362564 -3.093478 7.531971 8.288027 44.711137 23.555706 -69.774872 -21.144185 35.965724 116.866593 9.579659 17.888503 -32.748274 0.000000 0.000000 0.000000 -49.927242 -22.145139 -61.721180 49.067492 -55.459246 91.688049 -12.407565 -31.895437 -8.588586 0.000000 0.000000 0.000000 -3.515828 -0.847379 74.586179 4.141753 0.379030 -36.362259 2.441198 8.491271 28.189739 -3.865591 3.769021 -34.803771 0.000000 0.000000 0.000000 -0.150718 -30.707667 10.836678 5.452383 -25.793897 -2.018614 25.586093 -36.519778 -7.038830 0.000000 0.000000 0.000000 0.000000 0.000000 0.000000 -0.284319 35.296663 12.637176 -11.055468 32.143392 -4.109271 -14.433057 12.160273 -0.853048 0.000000 0.000000 0.000000 0.000000 0.000000 0.000000 
-0.968200 22.456663 -91.333221 -3.534652 8.910598 8.995319 42.533979 23.395220 -73.139584 -20.961000 34.937356 115.951746 10.223069 21.550440 -34.104098 0.000000 0.000000 0.000000 -50.351767 -22.198035 -61.258760 53.286165 -55.372268 85.888663 -13.281666 -35.060181 -10.577096 0.000000 0.000000 0.000000 -3.782159 -0.625849 73.330195 4.485238 0.307147 -35.939538 3.151723 9.294285 27.229560 -5.185547 4.283517 -38.075378 0.000000 0.000000 0.000000 -1.381481 -31.433864 11.384557 7.044254 -23.226014 -1.910677 24.342232 -35.208302 -6.363465 0.000000 0.000000 0.000000 0.000000 0.000000 0.000000 2.199811 35.591199 13.424569 -12.508566 32.786235 -4.538882 -11.501722 10.957316 -0.517443 0.000000 0.000000 0.000000 0.000000 0.000000 0.000000 
-2.321678 23.017179 -92.175385 -2.912215 12.005159 8.858696 39.179217 21.736521 -75.369977 -18.809834 30.827186 116.047714 10.290081 21.958265 -34.234368 0.000000 0.000000 0.000000 -50.502920 -22.085938 -60.803973 54.882892 -55.127883 83.508145 -15.018670 -38.795017 -8.744005 0.000000 0.000000 0.000000 -2.004620 -1.984692 73.681927 3.728670 0.347701 -34.853382 2.478245 8.487977 25.128897 -4.663201 4.100714 -37.862782 0.000000 0.000000 0.000000 -2.499159 -31.815559 11.788585 9.786533 -20.104564 -1.741338 23.833907 -32.331151 -5.654303 0.000000 0.000000 0.000000 0.000000 0.000000 0.000000 3.308217 35.640098 13.748872 -12.373915 32.040305 -4.372471 -9.605898 10.765210 -0.365951 0.000000 0.000000 0.000000 0.000000 0.000000 0.000000 
-3.768662 24.997629 -92.888565 -1.100101 14.085944 9.940864 36.322388 19.635939 -75.676019 -18.579418 28.219687 112.464423 10.458929 22.553546 -30.880163 0.000000 0.000000 0.000000 -49.725497 -21.869738 -61.377598 50.205261 -51.734245 85.517494 -15.901540 -39.390258 -5.698620 0.000000 0.000000 0.000000 -0.882262 -2.806298 73.028027 2.444500 0.506678 -34.264794 1.195041 7.133138 23.738864 -3.489935 3.711742 -38.796387 0.000000 0.000000 0.000000 -2.903683 -32.063877 11.983011 10.413940 -16.845562 -1.302939 20.762682 -31.229276 -4.582767 0.000000 0.000000 0.000000 0.000000 0.000000 0.000000 4.415933 34.806539 13.686374 -11.720476 31.030780 -4.055941 -8.826047 10.273974 -0.286189 0.000000 0.000000 0.000000 0.000000 0.000000 0.000000 
-5.136033 27.731741 -93.371506 0.429975 15.069192 10.851005 36.045409 18.543490 -73.111687 -20.745936 28.302830 105.838031 10.671536 23.009580 -26.100334 0.000000 0.000000 0.000000 -48.548335 -20.919582 -60.825417 45.824081 -48.269260 87.290431 -16.763843 -39.556009 -2.088569 0.000000 0.000000 0.000000 -0.541963 -3.008280 72.055301 1.670081 0.621928 -34.246704 0.840045 5.950338 23.031341 -2.335871 3.297448 -38.100190 0.000000 0.000000 0.000000 -3.876689 -31.203620 11.845528 10.806027 -14.284634 -0.934728 18.788862 -27.895616 -3.571310 0.000000 0.000000 0.000000 0.000000 0.000000 0.000000 6.746629 34.453888 14.150169 -12.092644 30.898762 -4.107849 -8.933048 9.413191 -0.252225 0.000000 0.000000 0.000000 0.000000 0.000000 0.000000 
-6.339590 31.298246 -93.677887 1.610902 16.200001 12.292715 35.836554 17.581661 -70.664438 -24.094726 28.367647 96.309187 11.388095 25.221536 -22.745885 0.000000 0.000000 0.000000 -46.805343 -19.551479 -60.016146 44.297443 -44.772788 84.787344 -17.874681 -40.276893 1.201444 0.000000 0.000000 0.000000 -0.105421 -3.221484 70.245553 1.264742 0.657414 -33.523191 -0.113319 4.351830 21.980559 -2.460858 3.278579 -36.117310 0.000000 0.000000 0.000000 -4.366444 -29.703641 11.318600 8.726021 -12.497482 -0.659948 17.976169 -24.790606 -2.972159 0.000000 0.000000 0.000000 0.000000 0.000000 0.000000 7.972339 32.543965 13.568288 -10.143116 29.873347 -3.553013 -10.393959 11.757257 -0.483787 0.000000 0.000000 0.000000 0.000000 0.000000 0.000000 
-7.335633 35.204033 -93.927216 2.212072 15.314187 13.329387 37.473168 17.319021 -66.447208 -28.302743 29.213582 87.286103 11.962014 26.100646 -17.241159 0.000000 0.000000 0.000000 -43.417350 -17.604858 -60.088234 43.629440 -41.303765 80.705653 -19.250846 -42.204866 2.590116 0.000000 0.000000 0.000000 -0.937690 -2.566500 69.034797 0.550519 0.767451 -33.468892 -0.320295 3.451779 21.598015 -3.651470 3.717673 -36.301393 0.000000 0.000000 0.000000 -5.410579 -28.646551 11.078264 8.279873 -10.742109 -0.438323 16.720305 -23.955485 -2.601927 0.000000 0.000000 0.000000 0.000000 0.000000 0.000000 10.021333 31.777303 13.699469 -8.532968 29.709560 -3.223587 -12.689992 14.831739 -0.922792 0.000000 0.000000 0.000000 0.000000 0.000000 0.000000 
-8.121990 39.137054 -94.099304 2.414307 15.153406 14.277200 36.450625 15.973618 -64.314173 -30.226261 27.207980 78.535305 13.588455 29.272817 -11.820990 0.000000 0.000000 0.000000 -41.038159 -15.390519 -57.566527 41.968064 -37.209064 76.824918 -17.630612 -39.457747 2.002729 0.000000 0.000000 0.000000 0.282687 -3.310914 67.300653 0.798839 0.677791 -31.822688 -1.844540 3.965439 20.279478 -1.526862 2.956884 -36.614033 0.000000 0.000000 0.000000 -7.402357 -28.958335 11.614108 6.671413 -10.482053 -0.428817 16.199789 -24.231013 -2.523173 0.000000 0.000000 0.000000 0.000000 0.000000 0.000000 13.943479 29.829656 13.618089 -7.548173 28.650492 -2.898654 -16.044392 19.237650 -1.788249 0.000000 0.000000 0.000000 0.000000 0.000000 0.000000 
-8.714137 42.635872 -94.171143 1.878740 14.507978 14.966058 36.870995 15.157035 -60.834872 -33.469819 26.270795 69.522255 15.483994 32.985680 -9.451878 0.000000 0.000000 0.000000 -38.648254 -13.077602 -54.180651 41.119602 -33.476983 71.693790 -17.493325 -39.914318 0.363909 0.000000 0.000000 0.000000 0.301588 -3.151325 64.526009 0.361039 0.735541 -31.181276 -1.983539 3.556298 21.052229 0.255248 2.472296 -39.381814 0.000000 0.000000 0.000000 -8.126969 -27.605622 11.138783 4.321988 -11.897503 -0.588843 16.299450 -27.024339 -2.857848 0.000000 0.000000 0.000000 0.000000 0.000000 0.000000 18.014084 27.602527 13.267145 -4.216722 29.803071 -2.424109 -19.047395 23.568344 -2.856471 0.000000 0.000000 0.000000 0.000000 0.000000 0.000000 
-9.159902 45.580055 -94.169357 2.467837 12.393655 14.843412 35.546501 13.346410 -57.242744 -33.926724 23.893791 63.022924 17.362896 34.556441 -2.350164 0.000000 0.000000 0.000000 -34.722964 -10.899470 -53.349000 36.296656 -28.962581 71.419277 -15.588512 -38.142069 -4.586175 0.000000 0.000000 0.000000 -0.319025 -2.739439 64.289767 -0.284414 0.848650 -31.122202 -2.543024 3.702589 20.772354 4.396122 1.242989 -41.042368 0.000000 0.000000 0.000000 -9.747294 -27.477710 11.385510 1.115747 -13.267151 -0.677325 17.891139 -29.917712 -3.609702 0.000000 0.000000 0.000000 0.000000 0.000000 0.000000 21.373510 25.633198 12.767513 0.863314 29.732894 -1.470588 -20.520669 26.154369 -3.547392 0.000000 0.000000 0.000000 0.000000 0.000000 0.000000 
-9.498680 48.348305 -94.052780 2.928430 10.531891 14.394660 34.635042 11.681816 -52.868463 -33.107604 21.626195 58.878075 16.205849 32.615851 -3.064655 0.000000 0.000000 0.000000 -30.895714 -8.606514 -51.283266 31.441660 -24.423072 71.019757 -13.770850 -35.439939 -8.432369 0.000000 0.000000 0.000000 0.363691 -3.067965 62.512380 -0.573729 0.872903 -29.666111 -2.920322 4.176030 21.052489 5.185957 0.954600 -40.709802 0.000000 0.000000 0.000000 -13.216963 -27.119426 11.867338 -1.335198 -15.156603 -0.725305 17.651026 -31.498191 -3.747489 0.000000 0.000000 0.000000 0.000000 0.000000 0.000000 22.476991 24.352851 12.180419 4.532193 28.601837 -0.772941 -19.686173 29.297270 -3.845919 0.000000 0.000000 0.000000 0.000000 0.000000 0.000000 
-9.897801 50.554176 -93.869766 3.864985 9.288676 13.295989 33.622207 10.792103 -51.323419 -31.832046 20.089010 57.231480 15.600836 30.057011 3.371424 0.000000 0.000000 0.000000 -29.678951 -7.587049 -48.888031 28.048975 -20.832643 69.439824 -12.735848 -32.708466 -8.401936 0.000000 0.000000 0.000000 0.755929 -3.230106 61.269381 -1.390714 1.022694 -29.128959 -3.469911 4.513121 21.495328 6.349670 0.232664 -37.773974 0.000000 0.000000 0.000000 -14.386227 -26.175169 11.593432 -5.988526 -16.662224 -0.592256 18.387083 -35.307254 -4.474438 0.000000 0.000000 0.000000 0.000000 0.000000 0.000000 24.484276 21.685293 10.823108 9.486659 26.211042 0.013225 -18.721286 31.146562 -3.877196 0.000000 0.000000 0.000000 0.000000 0.000000 0.000000 
-10.247684 52.578041 -93.610657 4.258336 9.895608 11.806117 32.317242 9.995765 -50.595458 -31.785241 20.192527 57.613907 14.582931 28.292520 3.702614 0.000000 0.000000 0.000000 -29.132781 -6.833502 -46.050230 27.710328 -19.860061 67.454147 -13.016248 -32.220234 -4.839963 0.000000 0.000000 0.000000 2.988008 -4.431397 59.628584 -3.588283 1.463330 -27.872430 -4.120930 2.610478 21.828945 7.912107 -0.560365 -35.999501 0.000000 0.000000 0.000000 -14.418074 -25.176038 11.074704 -8.979860 -15.860875 -0.492153 16.471154 -38.781625 -4.284033 0.000000 0.000000 0.000000 0.000000 0.000000 0.000000 26.949035 20.837243 10.622838 11.079137 23.139459 0.109253 -16.638144 31.869715 -3.422097 0.000000 0.000000 0.000000 0.000000 0.000000 0.000000 
-10.309458 54.050865 -93.133850 5.331659 10.253442 9.974629 29.281360 8.907910 -52.281966 -27.406877 17.750024 59.896631 14.206381 26.798182 10.065351 0.000000 0.000000 0.000000 -29.492890 -6.309408 -42.352543 27.574773 -19.015113 65.240387 -13.389471 -32.067741 -1.513510 0.000000 0.000000 0.000000 4.268915 -5.096423 58.806818 -5.077498 1.798800 -26.648799 -4.595562 0.733243 21.436375 6.655176 -0.349553 -33.911463 0.000000 0.000000 0.000000 -16.055556 -23.881900 10.654814 -11.118551 -16.139872 -0.405353 13.720355 -41.399742 -3.569002 0.000000 0.000000 0.000000 0.000000 0.000000 0.000000 28.651638 19.637258 10.037132 12.758274 19.865929 0.111850 -12.703785 33.793704 -2.539409 0.000000 0.000000 0.000000 0.000000 0.000000 0.000000 
